<svg
  version="1.0"
  xmlns="http://www.w3.org/2000/svg"
  xmlns:xlink="http://www.w3.org/1999/xlink"
  width="500px" height="500px" viewBox="0 0 5000 5000" preserveAspectRatio="xMidYMid meet">
  <g
     stroke="none"
     fill="#ffffff"
     id="background">
    <path
       id="square"
       d="M0 2500 l0 -2500 2500 0 2500 0 0 2500 0 2500 -2500 0 -2500 0 0 -2500z" />
  </g>
  <g
     style="fill:#000000;stroke:none"
     transform="matrix(1.8729627,0,0,1.8729627,-421.69751,-216.08575)"
     id="maigo">
    <path
       d="m 1088,873 42,-38 -13,-77 -14,-77 L 994,564 C 934,500 863,423 835,393 l -50,-54 -63,21 c -41,14 -60,26 -55,33 4,7 67,106 142,222 74,116 149,234 168,263 38,59 38,59 111,-5 z"
       id="mei1" />
    <path
       d="m 2111,2576 c 188,-43 366,-128 534,-253 66,-50 91,-76 111,-116 26,-51 26,-51 10,-105 l -17,-53 -47,27 c -26,15 -131,80 -234,144 -145,91 -207,124 -280,148 -276,92 -582,57 -953,-109 -130,-58 -355,-180 -355,-191 0,-5 13,-35 30,-68 l 30,-59 -35,-151 -34,-151 56,-114 c 49,-99 62,-116 97,-136 67,-36 66,-35 47,-90 -29,-85 -32,-86 -293,-72 -122,6 -250,12 -284,12 l -61,1 -12,40 c -14,48 4,160 26,160 8,0 60,-12 116,-26 l 103,-25 57,21 57,21 -45,88 -44,88 25,112 c 22,101 23,120 13,184 -19,117 -56,142 -197,131 -77,-6 -93,-4 -128,14 -62,31 -65,38 -52,114 l 12,66 155,5 c 223,7 298,28 566,161 251,125 403,176 620,210 74,11 302,-4 406,-28 z"
       id="mei2" />
    <path
       d="m 1723,2308 43,-32 43,-306 c 23,-168 44,-312 47,-319 3,-10 69,49 194,174 l 188,188 67,-28 c 36,-16 68,-32 71,-37 3,-4 0,-34 -7,-67 l -11,-59 -179,-149 c -160,-133 -178,-151 -178,-179 -1,-26 -14,-44 -71,-98 -64,-60 -70,-69 -70,-105 0,-22 5,-43 11,-46 6,-4 70,-11 142,-15 73,-5 151,-15 174,-24 47,-17 123,-64 123,-77 0,-5 -17,-35 -37,-67 -21,-31 -38,-59 -39,-60 -2,-2 -28,2 -58,9 -31,7 -59,10 -62,6 -3,-3 71,-106 165,-229 94,-123 171,-229 171,-236 0,-6 -12,-32 -27,-56 l -28,-44 -71,30 -71,31 -66,133 c -59,118 -70,134 -92,134 -20,0 -38,20 -104,122 -45,68 -82,128 -84,133 -3,6 -8,7 -12,3 -15,-14 -20,-145 -12,-274 11,-156 0,-244 -44,-350 -17,-41 -34,-74 -37,-74 -4,0 -32,24 -63,53 l -57,52 14,180 c 7,99 13,248 13,331 l 1,152 -31,6 c -17,3 -48,6 -69,6 h -38 L 1455,848 c -64,-150 -119,-276 -123,-280 -8,-8 -122,22 -122,32 0,4 39,128 86,274 47,147 84,279 82,294 -3,24 -9,27 -53,34 -27,5 -65,10 -82,13 l -33,6 v 84 c 0,47 3,85 6,85 3,0 64,-13 136,-30 135,-31 164,-35 172,-22 2,4 -19,67 -47,139 l -52,132 -165,136 c -91,75 -171,142 -178,149 -10,10 -10,27 -1,83 6,39 15,77 19,83 12,20 183,-67 272,-138 86,-69 179,-176 234,-269 20,-35 41,-63 46,-63 5,0 6,21 3,48 -13,114 -45,531 -45,594 0,66 1,69 33,88 17,11 33,20 35,20 2,0 22,-14 45,-32 z"
       id="mei3" />
  </g>
</svg>
